<svg xmlns="http://www.w3.org/2000/svg" width="260" height="93" viewBox="0 0 260 93">
  <g id="Group_1" data-name="Group 1" transform="translate(-410.822 -342.641)">
    <path id="Path_1" data-name="Path 1" d="M472.4,385.183c-.1,3.664,2.393,5.692,5.953,4.846a8.655,8.655,0,0,0,6.277-7.5c.457-3.976-2.228-6.35-6.133-5.422a8.278,8.278,0,0,0-6.1,8.072M527.439,398.7c-1.7,1.986-3.2,3.955-4.924,5.691a13.844,13.844,0,0,1-10.748,4.531c-4.344-.2-6.912-2.474-7.619-6.79-.1-.6-.209-1.2-.325-1.872-1.382,1.658-2.62,3.291-4.013,4.777a11.8,11.8,0,0,1-7.27,3.841c-4.764.59-8.368-2.412-8.91-7.514-.188-1.768-.03-3.573-.313-5.508a14.538,14.538,0,0,1-.811,1.324c-2.134,2.8-4.14,5.707-6.48,8.318a11.165,11.165,0,0,1-6.534,3.3,8.043,8.043,0,0,1-9.254-4.962,56.472,56.472,0,0,1-1.995-7.116c-1.475,1.607-3.054,3.5-4.806,5.207-8.025,7.838-20.577,10.355-30.178,6.078-6.536-2.912-9.9-8.327-11.444-15.018-3.8-16.416,3.562-35.295,17.41-44.768,7.133-4.88,14.945-6.716,23.471-4.874,8.056,1.74,11.923,7.392,10.3,15.5-1.459,7.294-5.885,12.24-12.983,14.624a8.721,8.721,0,0,1-3.424.352c-2.352-.2-3.116-1.744-2.23-3.913a42.315,42.315,0,0,0,2.286-6.37c.852-3.7-1.111-5.946-4.891-5.951a11.666,11.666,0,0,0-8.2,3.215,18.4,18.4,0,0,0-5.862,17.947c1.089,5.407,4.765,8.76,9.972,10.208,6.511,1.81,12.954,1.583,19.06-1.647a8.339,8.339,0,0,0,4.142-4.944c1.882-5.579,4.722-10.611,9.367-14.406a17.058,17.058,0,0,1,14.006-4,12.3,12.3,0,0,1,4.665,2.073c1.87,1.267,2.791,1.4,4.7.15a15.8,15.8,0,0,1,4.246-2.288c2.827-.766,4.479.688,4.133,3.6a20.3,20.3,0,0,1-1.492,4.949c-1.26,3.182-2.658,6.31-3.968,9.472a8.076,8.076,0,0,0-.413,1.687c-.7,3.975,1.552,6.04,5.46,4.891,3.136-.922,5-3.248,6.069-6.207,2.905-8.03,5.625-16.129,8.678-24.1a68.563,68.563,0,0,1,5.024-10.011c1.379-2.354,3.352-4.268,6.434-4.223,2.5.037,3.827,1.38,3.379,3.828a22.627,22.627,0,0,1-1.835,5.5c-3.829,8.11-7.689,16.207-10.03,24.906a32.293,32.293,0,0,0-1.1,6.674c-.128,2.472,1.334,3.754,3.817,3.851a8.549,8.549,0,0,0,8.165-5.845c1.68-4.428,3.454-8.826,5.373-13.154a13.553,13.553,0,0,1,2.861-3.938,7.745,7.745,0,0,1,3.218-1.857c2.4-.691,4.051.486,4.043,2.969a23.871,23.871,0,0,1-.8,5.912c-.773,2.952-1.877,5.814-2.751,8.742a9.19,9.19,0,0,0-.326,2.814c.092,3.609,3.071,5.47,6.253,3.727a13.9,13.9,0,0,0,3.505-3.321c1.26-1.468,1.975-1.771,3.318-.964,1.415.851,1.636,1.778.728,3.474-2.411,4.505-4.609,9.151-7.369,13.433a26,26,0,0,1-6.19,6.215,11.258,11.258,0,0,1-5.259,1.909c-5.1.644-8.406-2.464-9.122-8.235-.075-.605-.135-1.212-.211-1.9" transform="translate(0 0)" fill="#fff"/>
    <path id="Path_2" data-name="Path 2" d="M955.2,353.407c.991.131,2,.2,2.97.407,3.358.729,5.132,3.237,4.827,6.739-.452,5.206-3.674,7.869-9.281,7.669-.316-.011-.631-.046-.946-.077-4.445-.448-6.634-2.49-6.716-6.264-.1-4.584,2.169-7.452,6.467-8.146.882-.142,1.775-.219,2.679-.329" transform="translate(-408.548 -8.211)" fill="#fff"/>
    <path id="Path_3" data-name="Path 3" d="M1065.167,534.731a5.8,5.8,0,0,0,5.883,5.908,6.026,6.026,0,0,0,4.874-2.388l2.289,2.043a9.057,9.057,0,0,1-7.237,3.3,8.865,8.865,0,1,1-.049-17.723,8.956,8.956,0,0,1,6.3,2.461l-2.142,2.265a5.9,5.9,0,0,0-4.185-1.772,5.75,5.75,0,0,0-5.735,5.908" transform="translate(-496.938 -140.129)" fill="#fff"/>
    <path id="Path_4" data-name="Path 4" d="M1172.836,540.638a5.913,5.913,0,1,0-5.662-5.907,5.718,5.718,0,0,0,5.662,5.907m0-14.769a8.862,8.862,0,1,1-8.984,8.862,8.7,8.7,0,0,1,8.984-8.862" transform="translate(-574.806 -140.129)" fill="#fff"/>
    <path id="Path_5" data-name="Path 5" d="M1274.4,537.367h4.381l-2.191-5.1Zm-6.351,6.769,7.384-17.231h2.339l7.385,17.231h-3.471l-1.625-3.815h-6.917l-1.625,3.815Z" transform="translate(-654.344 -140.919)" fill="#fff"/>
    <path id="Path_6" data-name="Path 6" d="M1373.005,538.743a5.668,5.668,0,0,0,4.061,1.9,2.268,2.268,0,0,0,2.511-2.166c0-2.216-3.2-2.486-5.514-3.84a4.348,4.348,0,0,1-2.437-3.914c0-3.077,2.831-4.849,5.686-4.849a7.979,7.979,0,0,1,5,1.625l-1.723,2.462a4.612,4.612,0,0,0-2.979-1.133c-1.256,0-2.659.542-2.659,1.87,0,2.782,7.951,1.92,7.951,7.729,0,3.052-2.732,5.169-5.834,5.169a9.19,9.19,0,0,1-6.227-2.585Z" transform="translate(-732.842 -140.129)" fill="#fff"/>
    <path id="Path_7" data-name="Path 7" d="M1456.789,526.906v2.954h4.554v14.277h3.323V529.86h4.554v-2.954Z" transform="translate(-798.398 -140.92)" fill="#fff"/>
    <path id="Path_8" data-name="Path 8" d="M642.441,687.542v4.009h2.037a3.947,3.947,0,0,0,2.226-.468,2.007,2.007,0,0,0,.008-3.065,3.969,3.969,0,0,0-2.185-.476Zm-1.183-1.15h2.35a13.719,13.719,0,0,1,2.7.173,3.267,3.267,0,0,1,1.24.566,2.728,2.728,0,0,1,.813,1.019,3.186,3.186,0,0,1,.3,1.38,2.885,2.885,0,0,1-1.068,2.374,4.452,4.452,0,0,1-3.024.8l4.256,5.488h-1.463l-4.239-5.488h-.673v5.488h-1.183Z" transform="translate(-175.892 -262.844)" fill="#fff"/>
    <path id="Path_9" data-name="Path 9" d="M706.531,687l2,4.437h-4.026Zm-.148-2.613-5.57,12.274h1.315l1.84-4.025h5.094l1.857,4.025h1.265l-5.5-12.274Z" transform="translate(-221.352 -261.312)" fill="#fff"/>
    <path id="Path_10" data-name="Path 10" d="M773.454,695.037l1-.592q1.051,1.94,2.448,1.939a2.233,2.233,0,0,0,1.545-.575,1.844,1.844,0,0,0,.641-1.43,2.217,2.217,0,0,0-.543-1.364,9.965,9.965,0,0,0-1.8-1.635,14.381,14.381,0,0,1-1.692-1.413,3.118,3.118,0,0,1-.641-1,2.978,2.978,0,0,1-.205-1.076,2.622,2.622,0,0,1,.813-1.947,2.807,2.807,0,0,1,2.046-.8,2.967,2.967,0,0,1,1.692.485,5.567,5.567,0,0,1,1.4,1.438l-.953.739a5.9,5.9,0,0,0-.953-1.035,1.826,1.826,0,0,0-1.208-.41,1.629,1.629,0,0,0-1.166.427,1.429,1.429,0,0,0-.452,1.085,1.731,1.731,0,0,0,.4,1.142,12.05,12.05,0,0,0,1.824,1.536,9.766,9.766,0,0,1,2.07,1.939,3.119,3.119,0,0,1,.649,1.873,2.974,2.974,0,0,1-.994,2.227,3.251,3.251,0,0,1-2.308.945,3.98,3.98,0,0,1-3.615-2.5" transform="translate(-276.796 -261.893)" fill="#fff"/>
    <path id="Path_11" data-name="Path 11" d="M874.766,686.393v11.8h6.72v-1.167h-5.537V692.39h5.537v-1.15h-5.537v-3.68h5.587v-1.167Z" transform="translate(-354.127 -262.845)" fill="#fff"/>
    <path id="Path_12" data-name="Path 12" d="M933.974,686.393v11.8h5.734v-1.134h-4.535V686.393Z" transform="translate(-399.319 -262.845)" fill="#fff"/>
    <path id="Path_13" data-name="Path 13" d="M1034.724,686.393v4.946h-6v-4.946h-1.2v11.8h1.2v-5.7h6v5.7h1.183v-11.8Z" transform="translate(-470.732 -262.845)" fill="#fff"/>
    <path id="Path_14" data-name="Path 14" d="M1097.122,686.393v11.8h6.72v-1.167h-5.537V692.39h5.537v-1.15h-5.537v-3.68h5.586v-1.167Z" transform="translate(-523.851 -262.845)" fill="#fff"/>
    <path id="Path_15" data-name="Path 15" d="M1162.245,686.393l-4.7,4.42v-4.42h-1.216v11.8h1.216v-5.5l5.176,5.5h1.561l-6.113-6.507,5.669-5.29Z" transform="translate(-569.046 -262.845)" fill="#fff"/>
    <path id="Path_16" data-name="Path 16" d="M1228.619,686.393l-4.765,9.678-4.8-9.678h-.181l-1.676,11.8h1.134l1.151-8.512,4.223,8.512h.3l4.174-8.446,1.15,8.446h1.167l-1.693-11.8Z" transform="translate(-615.518 -262.845)" fill="#fff"/>
    <path id="Path_17" data-name="Path 17" d="M1306.57,687l2.005,4.437h-4.026Zm-.147-2.613-5.57,12.274h1.314l1.841-4.025h5.094l1.857,4.025h1.265l-5.5-12.274Z" transform="translate(-679.462 -261.312)" fill="#fff"/>
  </g>
</svg>
